<svg id="Capa_1" enable-background="new 0 0 512 512" height="512" viewBox="0 0 512 512" width="512" xmlns="http://www.w3.org/2000/svg"><g><g><g><g><g><path d="m281.591 284.88-49.073 49.073h-15.211v26.96h67.263l36.527-36.527c10.974-10.974 10.899-28.788-.166-39.67-10.935-10.754-28.495-10.68-39.34.164z" fill="#fdb0a0"/><path d="m328.048 284.88-49.073 49.073h-15.211v26.96h67.263l36.527-36.527c10.974-10.974 10.899-28.788-.166-39.67-10.935-10.754-28.495-10.68-39.34.164z" fill="#ffcec0"/></g></g></g><path d="m86.435 457.829 58.337-58.325c6.029-6.029 14.195-9.415 22.721-9.415h165.532c5.183 0 10.153-2.059 13.818-5.723l60.097-60.097c12.313-12.313 10.482-32.767-3.822-42.698-11.101-7.706-26.126-6.361-35.682 3.194l-49.194 49.194-69.226-.005c15.502 0 28.068-12.567 28.068-28.068 0-15.502-12.566-28.068-28.068-28.068l-117.516-.144c-14.579 0-28.558 5.788-38.861 16.104l-85.139 85.127" fill="#ffdfd0"/><path d="m406.939 324.265-60.099 60.099c-3.665 3.665-8.633 5.726-13.813 5.726h-30.913c5.189 0 10.157-2.061 13.822-5.726l60.099-60.099c12.307-12.307 10.475-32.763-3.823-42.691-.159-.115-.317-.22-.485-.326 9.382-6.237 21.839-6.308 31.388.326 14.307 9.928 16.139 30.384 3.824 42.691z" fill="#ffcec0"/></g><g><g><g><g><path d="m230.41 227.12 49.073-49.073h15.211v-26.96h-67.263l-36.527 36.527c-10.974 10.974-10.899 28.788.166 39.67 10.934 10.754 28.495 10.68 39.34-.164z" fill="#ea806f"/><path d="m183.952 227.12 49.073-49.073h15.211v-26.96h-67.263l-36.527 36.527c-10.974 10.974-10.899 28.788.166 39.67 10.935 10.754 28.495 10.68 39.34-.164z" fill="#f69583"/></g></g></g><path d="m108.882 230.43c11.101 7.707 26.126 6.361 35.682-3.194l49.194-49.194 69.226.005c-15.502 0-28.068 12.567-28.068 28.068 0 15.502 12.566 28.068 28.068 28.068l117.516.143c14.579 0 28.558-5.788 38.861-16.104l85.139-85.127-78.935-78.923-58.337 58.325c-6.029 6.029-14.195 9.415-22.721 9.415h-165.533c-5.183 0-10.153 2.059-13.818 5.723l-60.097 60.097c-12.312 12.313-10.481 32.767 3.823 42.698z" fill="#fdb0a0"/><path d="m504.5 133.09-85.14 85.13c-10.3 10.32-24.28 16.11-38.86 16.11l-117.52-.15c-7.75 0-14.76-3.14-19.84-8.22-4.19-4.19-7.07-9.71-7.94-15.87 1.3.18 2.63.28 3.98.28l117.51.15c14.58 0 28.56-5.79 38.86-16.11l85.14-85.12z" fill="#f69583"/><g><path d="m104.398 429.264-23.265 23.261c-2.93 2.929-2.93 7.677-.001 10.606 1.465 1.465 3.384 2.197 5.304 2.197 1.919 0 3.839-.732 5.303-2.196l23.265-23.261c2.93-2.929 2.93-7.677.001-10.606s-7.679-2.93-10.607-.001z"/><path d="m407.396 275.41c-12.187-8.46-28.063-8.325-39.981-.293-13.238-8.838-30.775-7.737-42.842 2.768-13.893-12.068-35.104-11.487-48.285 1.693l-1.662 1.662c-6.474-6.725-15.555-10.922-25.601-10.922l-117.525-.144c-16.692 0-32.378 6.5-44.164 18.3l-85.139 85.128c-2.93 2.929-2.93 7.678-.001 10.606s7.678 2.931 10.606.001l85.143-85.131c8.956-8.966 20.873-13.904 33.546-13.904l117.524.144c11.342 0 20.568 9.227 20.568 20.568s-9.227 20.568-20.568 20.568c-.514 0-72.258 0-72.258 0-4.143 0-7.5 3.358-7.5 7.5s3.357 7.5 7.5 7.5l141.484.004c1.989 0 3.896-.79 5.304-2.197l49.194-49.193c6.997-6.998 17.975-7.979 26.101-2.336 4.987 3.462 8.158 8.916 8.699 14.963.542 6.047-1.61 11.978-5.903 16.271l-60.096 60.096c-2.275 2.275-5.299 3.527-8.516 3.527h-165.531c-10.584 0-20.536 4.124-28.023 11.611l-9.665 9.663c-2.93 2.929-2.93 7.677-.001 10.606 1.465 1.465 3.384 2.197 5.304 2.197 1.919 0 3.839-.732 5.303-2.196l9.666-9.664c4.654-4.655 10.84-7.218 17.417-7.218h165.532c7.223 0 14.014-2.813 19.122-7.92l60.097-60.097c7.444-7.445 11.175-17.729 10.236-28.214-.939-10.486-6.438-19.944-15.085-25.947zm-120.501 14.774c7.323-7.322 18.94-7.892 26.945-1.701l-32.742 32.742c2.231-4.647 3.487-9.848 3.487-15.339 0-4.017-.679-7.875-1.912-11.479zm28.241 36.274-18.058-.001 36.272-36.273c6.038-6.036 14.943-7.569 22.434-4.374z"/><path d="m151.776 148.516c1.92 0 3.839-.732 5.304-2.197l13.38-13.381c2.274-2.274 5.299-3.527 8.516-3.527h165.532c10.584 0 20.536-4.124 28.023-11.612l58.337-58.325c2.93-2.929 2.93-7.677.001-10.606-2.93-2.929-7.679-2.929-10.606-.001l-58.338 58.325c-4.654 4.655-10.84 7.219-17.417 7.219h-165.533c-7.223 0-14.014 2.813-19.122 7.92l-13.381 13.381c-2.929 2.929-2.929 7.678.001 10.606 1.464 1.466 3.384 2.198 5.303 2.198z"/><path d="m509.804 127.792c-2.929-2.929-7.678-2.93-10.606-.001l-85.143 85.13c-8.956 8.966-20.873 13.904-33.546 13.904l-36.843-.045c-.003 0-.006 0-.009 0-4.138 0-7.495 3.352-7.5 7.491-.005 4.142 3.349 7.504 7.491 7.509l36.852.045c16.691 0 32.377-6.5 44.164-18.3l85.139-85.127c2.93-2.928 2.93-7.677.001-10.606z"/><path d="m104.605 236.591c6.125 4.252 13.183 6.334 20.201 6.334 6.95 0 13.859-2.048 19.79-6.047 5.912 3.923 12.745 5.874 19.573 5.874 8.335 0 16.652-2.908 23.257-8.638 6.632 5.762 14.929 8.647 23.229 8.647 9.086 0 18.17-3.449 25.059-10.337l1.662-1.662c6.474 6.725 15.555 10.922 25.601 10.922l44.746.055h.009c4.138 0 7.495-3.352 7.5-7.491.005-4.142-3.349-7.504-7.491-7.509l-44.755-.055c-11.342 0-20.568-9.227-20.568-20.568s9.227-20.568 20.568-20.568h72.258c4.143 0 7.5-3.358 7.5-7.5s-3.357-7.5-7.5-7.5l-141.483-.005c-.001 0-.001 0-.001 0-1.989 0-3.896.79-5.304 2.197l-49.194 49.194c-6.997 6.997-17.975 7.978-26.101 2.337-4.987-3.462-8.158-8.917-8.699-14.964s1.61-11.977 5.903-16.27l21.312-21.312c2.929-2.929 2.929-7.678 0-10.606-2.93-2.929-7.678-2.929-10.607 0l-21.312 21.312c-7.444 7.444-11.175 17.728-10.236 28.214.936 10.484 6.434 19.941 15.083 25.946zm120.501-14.775c-7.322 7.323-18.939 7.892-26.945 1.701l32.743-32.743c-2.231 4.648-3.488 9.849-3.488 15.34 0 4.017.679 7.875 1.912 11.479zm-28.242-36.274 18.057.001-36.273 36.273c-5.989 5.989-14.945 7.486-22.409 4.35z"/></g></g></g></svg>